Coordinates
version=1
nRows=17
nColumns=24
inDegrees=yes

Units are S.I. units (second, meters, Newtons, ...)
Angles are in degrees.

endheader
time	pelvis_tilt	pelvis_list	pelvis_rotation	pelvis_tx	pelvis_ty	pelvis_tz	hip_flexion_r	hip_adduction_r	hip_rotation_r	knee_angle_r	ankle_angle_r	subtalar_angle_r	mtp_angle_r	hip_flexion_l	hip_adduction_l	hip_rotation_l	knee_angle_l	ankle_angle_l	subtalar_angle_l	mtp_angle_l	lumbar_extension	lumbar_bending	lumbar_rotation
      4.79000000	      1.53863651	     -3.74447895	     -0.46787225	      2.51637451	      0.81884608	     -0.35476708	     15.57107307	      4.16660557	     -0.78461285	    -55.48278340	     -1.34413972	     -9.89689471	      0.00000000	     -3.90410235	      0.65516493	      7.68430459	     -4.59568920	      4.38122555	    -10.29045527	      0.00000000	    -11.79550903	      3.48397448	     -7.21155711
      4.80000000	      1.32336953	     -3.94215711	     -0.02179728	      2.52862055	      0.81890169	     -0.35620522	     16.92803309	      4.30038517	     -1.69065276	    -53.62556617	     -0.29578878	     -9.65106496	      0.00000000	     -4.96995118	      0.48007080	      7.71483049	     -3.79915802	      4.44431825	    -10.21281140	      0.00000000	    -11.82033575	      3.79388358	     -7.66961965
      4.81000000	      1.15781803	     -4.06052592	      0.43942033	      2.54087616	      0.81872257	     -0.35763721	     18.08547009	      4.31935700	     -2.61600197	    -51.38858322	      0.58009841	     -9.38371105	      0.00000000	     -6.08307718	      0.38923792	      7.72707944	     -3.01593431	      4.49027661	    -10.17483557	      0.00000000	    -11.89544018	      4.00763546	     -8.13573745
      4.82000000	      1.02340275	     -4.10948542	      0.93356889	      2.55315455	      0.81829317	     -0.35907644	     19.05112488	      4.24879844	     -3.54493020	    -48.76843621	      1.25919868	     -9.11604301	      0.00000000	     -7.22997888	      0.36448481	      7.74527356	     -2.23757941	      4.52256073	    -10.14089651	      0.00000000	    -12.00360387	      4.14270532	     -8.59731024
      4.83000000	      0.89075327	     -4.09884771	      1.46495452	      2.56548998	      0.81758924	     -0.36052515	     19.84530315	      4.10081078	     -4.48980487	    -45.76200463	      1.68662489	     -8.83023595	      0.00000000	     -8.36766593	      0.39183669	      7.73299563	     -1.49671177	      4.57198122	    -10.08208085	      0.00000000	    -12.10168617	      4.20425943	     -9.10834683
      4.84000000	      0.80561853	     -4.02145625	      2.00380667	      2.57794084	      0.81665089	     -0.36197985	     20.40667679	      3.88859145	     -5.40451455	    -42.38054804	      2.06598190	     -8.32406024	      0.00000000	     -9.58658396	      0.47315913	      7.77979925	     -0.73207938	      4.58657353	    -10.03218861	      0.00000000	    -12.24611712	      4.19037204	     -9.58766504
      4.85000000	      0.70535034	     -3.88744837	      2.54303293	      2.59054770	      0.81541657	     -0.36342829	     20.79991229	      3.63684368	     -6.28103691	    -38.63714276	      2.28129915	     -7.65493410	      0.00000000	    -10.80894674	      0.59621706	      7.87705618	      0.02298984	      4.59059398	     -9.99691981	      0.00000000	    -12.34652394	      4.10958144	    -10.08332624
      4.86000000	      0.60626447	     -3.68209466	      3.08488884	      2.60331987	      0.81391407	     -0.36489936	     21.00993215	      3.33588987	     -7.10809222	    -34.56980752	      2.47063138	     -6.62365422	      0.00000000	    -12.05506764	      0.76952675	      8.13655304	      0.76969313	      4.45071000	    -10.09942140	      0.00000000	    -12.43419717	      3.95656164	    -10.54630446
      4.87000000	      0.47841264	     -3.45493150	      3.66713054	      2.61627814	      0.81212204	     -0.36639455	     21.07568404	      3.04380171	     -7.91146418	    -30.20501601	      2.34924508	     -5.60184570	      0.00000000	    -13.25598100	      0.93174837	      8.44754299	      1.44571797	      4.40936297	    -10.12856004	      0.00000000	    -12.45912317	      3.78037154	    -11.09608430
      4.88000000	      0.34872619	     -3.17563543	      4.27072213	      2.62942002	      0.81008712	     -0.36791320	     20.98777037	      2.74150431	     -8.64335032	    -25.62621637	      2.08212684	     -4.44391993	      0.00000000	    -14.42891719	      1.11468713	      8.82798412	      2.02232263	      4.41852990	    -10.08510593	      0.00000000	    -12.46201740	      3.55144937	    -11.67597149
      4.89000000	      0.22846316	     -2.84142528	      4.90899663	      2.64273204	      0.80784546	     -0.36946882	     20.76346063	      2.42187599	     -9.31641935	    -20.94092952	      1.70343154	     -3.19862372	      0.00000000	    -15.56094089	      1.31824964	      9.28090730	      2.45292515	      4.50304636	    -10.00166607	      0.00000000	    -12.46039084	      3.26914169	    -12.31982408
      4.90000000	      0.12393661	     -2.40710576	      5.56566969	      2.65620196	      0.80543364	     -0.37109332	     20.48025818	      1.99226612	    -10.17012894	    -16.39836466	      1.43556265	     -1.46313352	      0.00000000	    -16.69080343	      1.58543135	      9.90992862	      2.79406645	      4.42038368	    -10.01526517	      0.00000000	    -12.46785536	      2.89599163	    -12.93945156
      4.91000000	      0.04713713	     -1.90991077	      6.26789363	      2.66979109	      0.80290905	     -0.37276838	     20.16170448	      1.51501447	    -11.16571616	    -12.16158961	      1.31846496	      0.52925352	      0.00000000	    -17.76275743	      1.87613911	     10.67078186	      2.91714721	      4.43429467	    -10.09218011	      0.00000000	    -12.50741604	      2.46416063	    -13.66218007
      4.92000000	      0.03171994	     -1.38225836	      6.95953546	      2.68350933	      0.80037946	     -0.37445361	     19.83718682	      1.03433851	    -12.39686599	     -8.45995159	      1.43116320	      2.93800244	      0.00000000	    -18.83356855	      2.16366029	     11.51096667	      2.86829089	      4.43400691	    -10.13735047	      0.00000000	    -12.61786282	      2.02070925	    -14.32899415
      4.93000000	      0.10228953	     -0.85962376	      7.60858280	      2.69733697	      0.79796133	     -0.37609493	     19.50092868	      0.61589195	    -13.76913014	     -5.41421935	      1.73364294	      5.57103837	      0.00000000	    -19.88959110	      2.42646393	     12.34590248	      2.58507004	      4.41478483	    -10.18073612	      0.00000000	    -12.83299227	      1.60045647	    -14.93547820
      4.94000000	      0.23039942	     -0.37314111	      8.19117050	      2.71127671	      0.79569378	     -0.37766822	     19.17269196	      0.30469684	    -14.96707197	     -3.08036409	      2.13539497	      7.98245966	      0.00000000	    -20.88466372	      2.64851438	     13.15023880	      2.04938765	      4.38688656	    -10.15133371	      0.00000000	    -13.11061151	      1.23241802	    -15.46177288
      4.95000000	      0.43405631	      0.06644756	      8.65941324	      2.72536370	      0.79365102	     -0.37914002	     18.78188433	      0.12326728	    -15.61397279	     -1.42259097	      2.46852937	      9.65879576	      0.00000000	    -21.80459466	      2.84919789	     13.74131467	      1.20765439	      4.36204692	     -9.90909142	      0.00000000	    -13.46412717	      0.92759854	    -15.86427598
